<?xml version="1.0" encoding="utf-8"?>
<!-- Generator: Adobe Illustrator 15.0.0, SVG Export Plug-In  -->
<!DOCTYPE svg PUBLIC "-//W3C//DTD SVG 1.1//EN" "http://www.w3.org/Graphics/SVG/1.1/DTD/svg11.dtd" [
	<!ENTITY ns_flows "http://ns.adobe.com/Flows/1.0/">
]>
<svg version="1.1"
	 xmlns="http://www.w3.org/2000/svg" xmlns:xlink="http://www.w3.org/1999/xlink" xmlns:a="http://ns.adobe.com/AdobeSVGViewerExtensions/3.0/"
	 x="0px" y="0px" width="1200px" height="212px" viewBox="57.3 -8.045 1200 212" enable-background="new 57.3 -8.045 1200 212"
	 xml:space="preserve">
<defs>
</defs>
<path fill-rule="evenodd" clip-rule="evenodd" d="M679.247,198.818c4.74,0.309,30.081,0.437,34.791,0.773
	c-1.142-3.142-2.779-5.814-4.542-8.37c4.209,1.677,7.789,5.56,10.859,8.929c1.578-0.122,2.722,0.164,4.146,0.187
	c2.162-7.266,3.426-16.365,12.045-16.928c0.162,0.897-1.244,2.037-1.975,3.348c-1.926,3.457-3.954,8.737-2.369,13.952
	c2.825,0.377,5.983,0.44,9.083,0.558c-2.574-16.195,5.533-27.923,16.389-33.854c-5.494,7.716-10.181,24.324-3.751,34.413
	c3.734-0.208,8.554,1.103,10.465-1.116c-2.803-7.726-3.483-19.639-1.184-28.089c-0.159,5.796,1.504,11.141,4.146,14.882
	c1.521-6.63,4.892-12.505,9.281-15.813c-2.1,6.992-2.26,17.888,0.593,24.182c2.89-11.351,4.919-23.514,7.7-34.97
	c4.807-4.027,10.31-7.4,15.401-11.16c1.512,0.873,2.504,2.418,3.95,3.906c1.128,1.159,3.325,2.563,3.752,3.906
	c0.793,2.498,0.259,7.143,0.395,10.044c0.439,9.407,1.182,20.462,1.383,29.763c1.642,0.021,2.521-1.887,4.541-2.604
	c5.677-2.015,15.319-1.139,17.376,3.162c-5.182-20.872,2.876-41.646,14.415-51.896c-3.548,5.813-7.613,13.769-7.701,22.692
	c-0.078,7.909,3.466,14.578,8.491,18.788c5.587-1.991,8.594,2.481,9.873,6.324c11.358-2.366,7.515-20.605,4.344-28.833
	c0.746-0.075,1.431,0.791,1.974,1.304c4.443,4.186,8.179,10.312,9.083,17.855c1.182-2.683,1.984-5.85,2.962-9.114
	c0.881-2.944,2.535-6.14,2.764-9.113c0.232-3.018-0.395-6.223-0.395-9.302c-0.001-6.021,0.846-12.229,1.974-17.484
	c0.558-2.601,1.108-5.196,2.37-7.44c-1.268,5.514-0.882,13.468,0.592,19.345c4.262-13.347,8.297-26.905,12.439-40.364
	c9.763-4.879,19.728-9.566,29.421-14.51c5.125,3.172,9.864,6.705,14.612,10.23c2.352,26.266,2.729,53.387,5.529,79.613
	c0.053,0.494-0.525,1.871,0.593,2.047c1.382-0.298,0.492-1.941,0.395-2.604c-2.352-15.898-1.804-35.854,3.357-48.922
	c-1.694,14.465,3.246,28.809,8.688,39.435c1.928-22.347,3.717-45.372,5.331-68.081c0.549-7.719,0.412-15.703,1.778-23.065
	c0.417-2.251,6.342-5.675,8.292-7.254c8.595-6.961,16.134-13.572,25.077-20.09c6.645,3.786,13.719,7.165,20.338,10.976
	c6.982,26.595,30.036,53.222,37.037,79.799c1.064-2.717,1.9-5.65,2.567-8.742c4.218-3.26,7.145-8.331,10.268-13.766
	c2.348-4.085,4.446-8.465,5.726-12.835c2.847-9.719,2.474-20.806-0.79-31.063c3.645-3.883,7.966-7.129,11.847-10.789
	c3.785,2.128,7.011,4.293,11.057,6.697c1.406,0.835,3,1.25,3.555,2.23c1.262,2.237,1.15,8.846,1.381,12.092
	c0.88,12.36,6.172,21.53,11.255,29.204c6.326-7.561,9.598-16.726,9.873-27.903c0.088-3.556-0.733-6.976-0.987-10.973
	c-0.357-5.623,0.293-12.172,0.395-18.416c0.098-6.042-0.287-12.456,1.777-17.484c1.388,0.546,1.913,2.448,2.37,3.905
	c2.395,7.646,2.304,17.599,4.146,26.414c0.704,3.364,1.871,9.243,5.924,7.998c2.688-4.819,1.713-11.919,1.383-18.787
	c-0.177-3.644-0.457-7.259-0.791-10.789c-0.323-3.417-0.987-6.958-0.79-9.858c0.158-2.313,1.119-7.277,3.159-7.439
	c1.552-0.124,3.514,3.161,3.949,4.463c0.952,2.845,0.915,6.659,1.382,9.859c1.464,10.01,2.624,20.085,4.739,29.762
	c2.13,9.742,4.763,18.188,8.096,26.601c1.078,2.72,1.73,5.629,3.751,7.812c2.656-1.194,3.011-5.217,3.554-8.184
	c1.76-9.615,2.259-21.011,2.764-31.437c0.687-14.162,1.09-28.554,1.186-42.225c6.998-5.622,14.682-10.598,21.917-15.997
	c11.562,5.229,23.189,10.396,34.555,15.81c0.235,8.519,1.686,17.149,3.752,25.299c2.045,8.066,3.708,16.308,6.713,22.88
	c2.718,5.94,9.264,9.111,16.389,10.416c6.834,35.85,14.132,71.263,20.931,107.144c2.53-0.159,4.497-0.848,6.714-1.302
	c0,34.103,0,68.205,0,102.307c-104.966-0.053-225.599,0.327-330.654,0.186c-0.297,2.669-0.637,5.354-0.592,7.441
	c-0.816-1.609,0.034-4.47,0-7.255c-121.601-0.153-265.074,0.599-387.25,0.528c-4.62,16.233-8.285,33.366-12.637,49.852
	c2.977-16.541,7.665-33.082,11.255-49.665c-172.919-0.191-369.494,6.764-542.826,6.814c-0.141-37.526,0.978-75.62,0-112.723
	c-1.932,0.147-2.164,2.425-2.567,3.721c-3.318,10.666-6.59,22.24-10.07,32.924c2.721-12.008,7.077-24.089,10.268-36.272
	c0.1-0.526,1.12-0.185,1.185-0.745c1.773-3.778-2.915,6.143-2.815,0.678c1.053,0-13.365-60.489-12.313-60.489
	c10.44-34.187,36.426-7.816,46.867-42.004c9.763-4.878,19.727-9.565,29.421-14.508c3.318,1.772,5.952,4.188,9.083,6.138
	c3.946-16.214,7.937-34.064,6.714-53.944c13.135-6.349,26.284-12.688,39.491-18.973c9.598,5.528,18.926,11.313,28.433,16.927
	c2.904,25.125,5.583,48.532,10.663,71.986c0.826,3.815,1.558,7.277,2.764,11.162c0.777,2.504,2.388,9.184,4.936,8.929
	c1.651-0.166,2.933-6.035,3.752-8.557c4.97-15.301,7.523-32.678,8.293-52.084c0.152-3.823,0.406-7.749,0.593-11.532
	c0.189-3.83-0.133-7.683,0.395-11.161c0.308-2.03,2.1-5.861,4.344-5.766c2.431,0.102,4.414,6.102,4.739,8.741
	c0.46,3.733,0,7.939,0,11.904c0,3.964,0.235,7.961,0.395,11.534c0.342,7.643,0.337,14.62,3.554,20.274
	c0.75-0.456,1.42,0.35,2.369,0.188c3.086-0.533,3.766-5.859,4.147-9.116c1.134-9.692-0.053-21.487,1.975-30.319
	c0.366-1.598,0.736-3.582,2.172-4.278c2.212,2.415,2.246,6.004,2.765,9.301c1.058,6.735,1.878,13.736,2.764,20.833
	c0.436,3.49,1.38,7.188,1.383,10.416c0.004,5.158-0.483,9.44,0.197,13.765c1.92,12.211,7.425,21.976,15.007,29.392
	c3.622-5.733,7.035-12.382,8.885-20.275c1.828-7.8,0.724-17.747,1.58-26.973c5.35-3.454,10.944-6.679,16.191-10.229
	c5.496,3.565,10.408,7.68,15.796,11.346c-3.596,13.531-0.851,28.966,4.146,38.69c2.554,4.971,5.979,9.557,9.28,13.951
	c3.361,4.474,29.487,2.733,34.181,5.462c2.37,6.448,9.27-2.603,11.899,3.601c2.83-2.045,6.489-3.311,9.676-5.022
	c-4.922-11.446-10.575-25.327-7.109-40.922c3.072-13.822,6.544-27.67,12.243-38.69c5.774-11.169,14.326-19.908,23.892-27.717
	c9.603-7.838,18.988-15.988,28.236-23.622c6.14-0.79,7.633-5.955,15.797-4.837c-2.458,1.973-13.118,4.856-7.503,8.557
	c0.035,0.9-0.261,1.49-0.395,2.232c2.767,3.53,5.274,7.308,8.293,10.602c3.585-1.023,6.5-4.177,10.465-5.208
	c2.447-0.637,4.889-0.835,7.307-1.674c2.273-0.788,4.536-1.892,7.108-1.488c-1.271,0.788-3.254,0.903-4.147,2.046
	c-2.787,12.303,3.525,20.02,9.083,26.228c2.538,1.019,4.844,2.257,7.503,3.162c1.02-0.526,2.16-0.94,2.567-2.046
	c-0.86-1.546-3.306-1.597-3.949-3.348c-2.691-0.039-6.027-0.583-6.714-2.42c-0.796-2.126,1.805-6.979,3.357-8.741
	c3.206-3.638,15.433-11.019,22.312-7.068c1.514-0.62,3.465-0.828,5.727-0.744c1.978-0.104,2.368,3.341,3.949,4.093
	c1.904,0.903,4.778-0.445,6.516-0.744c3.058-0.527,5.467-0.558,7.701-1.675c4.677-2.341,8.046-8.069,13.821-8.742
	c6.048-0.704,12.689,1.753,17.376,0.558c5.053-1.287,7.5-8.029,12.439-8.741c3.576-0.517,5.909,1.288,7.306,3.161
	c-4.241-3.297-8.637-0.719-11.452,2.231c-1.187,1.244-2.231,3.155-3.752,4.279c-4.924,3.638-15.471,0.048-22.708,2.418
	c-3.499,1.146-6.21,5.885-8.885,7.998c-3.711,2.934-7.864,3.38-11.058,5.952c3.396,0.674,6.459,2.248,10.07,1.303
	c2.628-0.688,3.782-2.693,5.529-3.348c1.469-0.551,2.807-0.788,4.936-0.559c1.586,0.171,2.896,1.214,4.937,0.743
	c4.227-0.971,4.417-5.688,8.096-7.812c2.245-1.296,5.31-1.719,8.293-1.488c1.464,0.113,3.438,1.479,5.727,1.303
	c3.272-0.254,3.662-3.963,5.331-6.14c0.017,3.118-0.92,5.333-1.974,7.44c-2.405,2.576-6.051-0.159-9.675-0.186
	c-1.11-0.009-3.328,0.177-4.345,0.558c-4.036,1.517-4.425,9.54-10.07,10.046c-3.201,0.286-5.287-1.854-9.478-1.116
	c-3.769,0.661-4.52,4.64-8.886,5.394c1.638,0.882,2.749,1.938,4.936,1.86c1.782-0.063,4.137-1.493,6.122-1.675
	c2.344-0.213,4.899,0.131,6.911,0.745c2.1,0.641,3.822,2.065,5.923,1.86c3.399-0.334,5-3.931,7.702-4.65
	c2.832-0.757,5.74,1.008,8.885,1.115c5.365,0.185,8.4-6.328,11.65-8.742c2.577-1.914,5.481-4.638,9.28-2.232
	c-11.114-0.786-9.386,13.518-19.745,14.51c-2.832,0.27-4.873-1.856-7.701-1.674c-3.5,0.225-5.508,4.726-9.478,5.021
	c-3.762,0.281-6.296-2.859-10.268-2.604c-4.855,0.312-9.96,5.308-16.785,3.162c1.653,2.078,4.496,5.29,8.293,5.394
	c1.803,0.05,3.829-1.077,5.924-1.488c3.254-0.64,7.238-1.154,10.465-0.185c2.69,0.807,3.822,2.88,8.096,1.858
	c2.069-0.493,2.963-1.934,4.542-2.603c1.383-0.588,3.156-0.979,4.937-0.93c3.012,0.079,5.792,2.876,9.478,2.604
	c2.336-0.173,6.805-3.179,7.898-5.581c0.556-1.222,0.547-2.511,0.789-3.72c1.17,1.937,0.966,4.578-0.197,6.51
	c-1.393,2.314-5.679,5.309-8.293,5.581c-4.011,0.416-5.748-2.96-10.267-2.419c-3.173,0.38-4.82,3.156-8.096,3.721
	c-4.229,0.729-7.464-1.625-10.663-1.86c-2.128-0.157-4.302,0.31-6.121,0.744c-1.625,0.39-2.931,1.438-4.739,1.859
	c-10.073,2.346-15.016-7.804-23.893-6.695c-0.611,0.349,1.104,1.046,0.198,1.674c-4.155,0.087-5.861-3.965-10.268-2.417
	c-1.147,4.256,3.352,4.588,6.319,5.766c3.417,1.356,5.772,4.347,6.91,7.998c3.191,1.643,6.139,3.519,6.911,7.44
	c1.063,1.355,2.65,2.216,4.344,2.978c3.466-2.045,10.371,0.289,13.427-2.049c0.399-0.943-0.916-1.576-1.185-2.789
	c-0.371-1.67,0.052-3.639-0.987-4.836c1.458-1.23,2.791-2.579,3.159-4.837c3.19-0.157,3.724-2.816,7.306-2.603
	c0.006,0.791-0.924,0.416-1.382,1.115c-0.177,0.27-0.042,1.163-0.395,1.674c-1.125,1.628-4.316,1.933-3.751,3.906
	c0.496,1.731,4.148,1.181,4.739-0.558c-0.018-1.003-1.063-0.069-1.382-0.56c0.178-0.274,1.48-2.368,1.975-2.603
	c0.36-0.171,1.694-0.05,2.172-0.187c1.27-0.36,1.886-1.442,2.566-1.488c1.793-0.119,3.332,2.153,5.332,1.115
	c0.723,0.869,1.715,1.485,2.961,1.861c-0.057,1.107,1.106,1.066,1.58,1.674c-0.215,1.873,0.491,4.171,0.987,5.208
	c-0.308,1.091-1.265,1.456-1.975,2.232c-0.702,0.769-1.084,1.742-1.975,2.232c-2.34,1.289-6.566,0.729-9.281,2.046
	c-2.928,1.422-5.859,4.265-8.095,6.511c-2.205,2.215-4.58,6.27-7.108,7.44c-2.397,1.11-5.813,0.061-6.121,2.976
	c-1.175-1.462-2.872-1.756-4.146-3.162c-0.932-1.028-1.239-2.675-2.369-3.72c-3.154-2.916-9.519-1.437-13.032-4.464
	c-0.799,2.224-1.767,4.288-3.555,5.579c6.575,7.485,9.504,25.367,2.37,34.413c5.07,5.179,10.95,10.173,15.993,16.183
	c1.527,1.82,4.042,4.918,4.344,6.882c0.529,3.438-0.36,7.914-0.592,12.092c-0.225,4.039-0.49,8.083-0.593,12.092
	c13.568-10.11,26.041-31.583,19.154-56.177c8.47,15.945,13.125,48.381,0.987,64.547c9.147-0.449,14.837,3.846,18.561,9.114
	c-5.191-13.709-0.112-31.114,9.083-36.831c-3.14,11.152-4.607,30.689,8.49,32.366c1.901-3.901,2.936-7.624,7.503-7.999
	c1.159-0.094,2.204,0.707,3.357,0.559c2.86-0.364,6.185-7.249,7.108-9.858c5.444-15.385-4.646-28.284-10.663-37.017
	c13.8,11.926,24.418,26.849,24.089,52.084c2.86-10.822,5.47-21.883,8.097-32.925c11.311-6.581,22.414-13.359,33.567-20.089
	c5.701,4.365,11.1,9.013,16.586,13.578c1.039,15.516,2.214,30.902,3.159,46.504c4.451-3.117,9.316-7.682,12.638-12.648
	c3.331-4.985,6.206-11.749,4.344-19.719c6.75,14.155,3.371,36.926-4.344,47.62c0.036,0.158-0.077,0.176-0.198,0.187
	c2.341-1.227,5.996-3.286,9.675-2.046C677.256,195.52,677.726,197.214,679.247,198.818z M481.198,27.315
	c1.202,0.853,3.356,0.623,2.962-1.487C482.826,25.996,481.498,26.172,481.198,27.315z M428.676,66.378
	c0.007,3.126,1.477,5.243,2.567,7.44c-3.221-1.377-6.306-6.696-9.479-2.231c-0.528-1.395-0.508-3.764-0.197-5.395
	c-2.202,1.609-0.236,4.692-0.592,6.883c-0.379,2.321-3.065,3.98-3.357,6.138c-2.137-1.77-2.426-5.278-3.554-7.998
	c-0.519,4.039,1.75,7.019,2.962,10.044c-2.703,7.302-3.286,19.587-1.382,27.53c-2.514-2.039-4.425-5.887-4.542-10.045
	c-0.045-1.629,0.32-3.334,0.198-5.023c-0.533-7.354-5.497-15.501-13.427-13.577c-0.514-2.368-0.352-5.372-0.79-7.813
	c-0.782,2.876-0.479,5.901,0,8.929c-2.385,3.582-3.579,8.286-5.331,12.462c-2.351-1.628-2.603-5.236-3.356-8.369
	c-0.191,1.838-0.566,3.063-0.396,4.65c0.302,2.792,2.608,5.191,2.765,7.627c0.082,1.265-0.557,3.039-0.79,4.463
	c-1.234,7.562-0.188,14.828,2.37,21.579c-2.463-1.448-4.597-3.736-5.726-6.511c-3.4-8.356-4.413-19.596-12.044-24.183
	c-0.575-2.063-0.167-5.051-0.791-7.067c-1.171,1.968-0.55,5.256-0.395,7.254c-1.921-0.075-2.773,0.859-4.344,1.116
	c-0.357-0.903-0.715-1.806-1.184-2.604c-0.107,2.814-0.474,5.382-2.962,5.953c-1.166-0.204-1.016-1.648-1.777-2.232
	c1.845,4.958-1.994,7.415-3.357,10.974c-1.525-3.398-2.8-7.034-3.159-11.531c-3.353,4.152-1.356,12.505,0.987,16.183
	c-4.641,5.13-7.274,14.082-5.923,23.623c5.713-2.926,11.568-5.72,17.375-8.557c2.466,1.632,4.755,3.209,7.307,5.022
	c1.279,0.91,6.59,4.031,7.108,5.395c0.392,1.029,0.099,3.046,0.198,4.649c0.653,10.62,1.788,21.492,2.171,31.809
	c0.823-0.092,0.556-1.211,0.988-1.674c8.783-5.443,9.586-20.468,10.267-34.598c0.435-9.002,0.931-19.477,0.396-27.902
	c8.833,20.262,16.205,41.909,17.179,69.568c1.508-0.714,3.016-2.49,5.528-2.046c2.663,0.472,3.354,3.618,4.739,5.395
	c1.917-3.608,5.543-7.013,7.108-11.532c1.224-3.533-0.68-7.195-0.197-10.789c0.669-4.987,5.012-7.495,9.28-10.045
	c2.964-7.797-3.527-19.906,1.185-27.716c-4.194-1.974-8.072-4.55-8.688-9.486c-1.145-9.166,3.376-12.729,4.739-18.974
	c-2.002-0.881-5.891-1.051-8.096-2.977c-0.321-0.28-0.424-1.188-0.988-1.674c-1-0.86-2.628-0.452-2.764-2.046
	c-0.174-2.052,2.83-4.146,4.739-5.209c1.123-3.15,4.81-5.908,5.331-9.858c0.167-1.265-0.243-2.492,0-3.72
	c0.569-2.88,2.309-4.797,3.554-7.255C436.803,52.826,428.66,60.165,428.676,66.378z M462.638,157.524
	c-1.552,1.573-3.269,3.345-5.134,5.208c-1.236,1.235-4.529,4.074-4.937,5.58c-0.697,2.578-0.165,5.635-0.395,7.999
	c-0.149,1.524-0.851,3.274,0.197,4.279c1.63-0.373,2.269-2.341,3.555-3.722c2.809-3.017,7.738-6.183,12.44-3.534
	c-0.299-12.62,3.137-21.722,7.503-29.948c-1.966-1.558-3.816-3.226-5.529-5.021C472.676,147.902,467.318,152.779,462.638,157.524z
	 M484.358,169.43c0.943-0.414,1.087-1.58,1.776-2.232c-2.199-2.663-5.631-4.981-6.121-9.486c-0.477-4.389,0.713-7.189,2.37-9.673
	c-1.282-0.652-2.085-1.758-3.555-2.232C477.367,154.52,476.878,166.546,484.358,169.43z"/>
</svg>
